<svg width="37" height="37" viewBox="0 0 37 37" fill="none" xmlns="http://www.w3.org/2000/svg">
<mask id="mask0" mask-type="alpha" maskUnits="userSpaceOnUse" x="0" y="0" width="37" height="37">
<path d="M36.502 18.6001C36.502 28.5412 28.4431 36.6001 18.502 36.6001C8.56083 36.6001 0.501953 28.5412 0.501953 18.6001C0.501953 8.65897 8.56083 0.600098 18.502 0.600098C28.4431 0.600098 36.502 8.65897 36.502 18.6001Z" fill="white"/>
</mask>
<g mask="url(#mask0)">
<path d="M36.002 18.6001C36.002 28.2651 28.1669 36.1001 18.502 36.1001C8.83697 36.1001 1.00195 28.2651 1.00195 18.6001C1.00195 8.93511 8.83697 1.1001 18.502 1.1001C28.1669 1.1001 36.002 8.93511 36.002 18.6001Z" fill="white" stroke="#57646E"/>
<path d="M18.4697 22.7247C20.5094 22.7247 22.5012 21.487 24.0782 19.2397C25.4699 17.2565 26.3007 14.8045 26.3007 12.6806C26.3007 8.36261 22.7877 4.84961 18.4697 4.84961C14.1517 4.84961 10.6387 8.36261 10.6387 12.6806C10.6387 14.8045 11.4695 17.2565 12.8612 19.2397C14.4381 21.487 16.4299 22.7247 18.4697 22.7247ZM18.4697 6.12657C22.0835 6.12657 25.0237 9.06672 25.0237 12.6806C25.0237 14.5241 24.2608 16.7563 23.0329 18.5063C21.7211 20.3756 20.0579 21.4477 18.4697 21.4477C16.8814 21.4477 15.2182 20.3756 13.9064 18.5063C12.6785 16.7563 11.9156 14.5241 11.9156 12.6806C11.9156 9.06672 14.8558 6.12657 18.4697 6.12657Z" fill="#57646E"/>
<path d="M29.9437 26.2281C28.5639 24.0868 26.6215 22.3774 24.3262 21.2848C24.0824 21.1687 23.7921 21.2185 23.6009 21.4092C22.0625 22.9433 20.2876 23.7541 18.4681 23.7541C16.6483 23.7541 14.8737 22.9433 13.3363 21.4092C13.145 21.2185 12.8546 21.1686 12.6109 21.2847C10.3156 22.3773 8.37288 24.0868 6.99292 26.2281C5.57541 28.4276 4.82617 30.9794 4.82617 33.6077V33.6188C4.82617 33.7989 4.90228 33.9707 5.03568 34.0917C8.71979 37.4329 13.4902 39.2729 18.468 39.2729C23.4458 39.2729 28.2161 37.4329 31.9003 34.0917C32.0337 33.9707 32.1098 33.799 32.1098 33.6188V33.6077C32.11 30.9794 31.361 28.4276 29.9437 26.2281ZM18.4681 37.996C13.9033 37.996 9.5247 36.343 6.10611 33.3357C6.15574 31.0495 6.83091 28.8368 8.06633 26.9198C9.23832 25.1014 10.8576 23.6265 12.7678 22.6329C14.4743 24.2038 16.4365 25.031 18.4681 25.031C20.4994 25.031 22.4619 24.2037 24.1692 22.6328C26.0793 23.6263 27.6985 25.1013 28.8703 26.9197C30.1054 28.8366 30.7804 31.0493 30.8301 33.3356C27.4115 36.3429 23.0329 37.996 18.4681 37.996Z" fill="#57646E"/>
</g>
</svg>
