<svg width="9" height="15" viewBox="0 0 9 15" fill="none" xmlns="http://www.w3.org/2000/svg">
<path d="M1.08291 13.1545C0.736217 13.5844 0.803671 14.2139 1.23358 14.5606C1.66348 14.9073 2.29304 14.8399 2.63974 14.41L1.08291 13.1545ZM7.04935 7.34906L7.82776 7.97681C8.13688 7.5935 8.12094 7.0422 7.79019 6.67739L7.04935 7.34906ZM2.60217 0.955069C2.23122 0.54591 1.59881 0.51494 1.18965 0.885895C0.780495 1.25685 0.749525 1.88926 1.12048 2.29842L2.60217 0.955069ZM2.63974 14.41L7.82776 7.97681L6.27093 6.72131L1.08291 13.1545L2.63974 14.41ZM7.79019 6.67739L2.60217 0.955069L1.12048 2.29842L6.3085 8.02073L7.79019 6.67739Z" fill="#677283"/>
</svg>
