<svg width="25" height="26" viewBox="0 0 25 26" fill="none" xmlns="http://www.w3.org/2000/svg">
<path d="M12.3274 6.70083C8.88767 6.70083 6.11316 9.47089 6.11316 12.9051C6.11316 16.3394 8.88767 19.1094 12.3274 19.1094C15.7672 19.1094 18.5417 16.3394 18.5417 12.9051C18.5417 9.47089 15.7672 6.70083 12.3274 6.70083ZM12.3274 16.9387C10.1046 16.9387 8.28734 15.1298 8.28734 12.9051C8.28734 10.6804 10.0992 8.87152 12.3274 8.87152C14.5557 8.87152 16.3675 10.6804 16.3675 12.9051C16.3675 15.1298 14.5503 16.9387 12.3274 16.9387ZM20.2453 6.44704C20.2453 7.2516 19.5963 7.89417 18.7959 7.89417C17.99 7.89417 17.3464 7.2462 17.3464 6.44704C17.3464 5.64788 17.9954 4.99991 18.7959 4.99991C19.5963 4.99991 20.2453 5.64788 20.2453 6.44704ZM24.3611 7.91577C24.2692 5.97726 23.8257 4.26015 22.4033 2.84541C20.9863 1.43068 19.2664 0.987905 17.3248 0.89071C15.3237 0.777315 9.32575 0.777315 7.32464 0.89071C5.38843 0.982505 3.66856 1.42528 2.24615 2.84001C0.823739 4.25475 0.385659 5.97186 0.288307 7.91037C0.174731 9.90827 0.174731 15.8966 0.288307 17.8945C0.38025 19.833 0.823739 21.5501 2.24615 22.9648C3.66856 24.3796 5.38302 24.8223 7.32464 24.9195C9.32575 25.0329 15.3237 25.0329 17.3248 24.9195C19.2664 24.8277 20.9863 24.385 22.4033 22.9648C23.8203 21.5501 24.2638 19.833 24.3611 17.8945C24.4747 15.8966 24.4747 9.91367 24.3611 7.91577ZM21.7759 20.0382C21.354 21.0965 20.5374 21.9119 19.4719 22.3385C17.8764 22.9702 14.0906 22.8244 12.3274 22.8244C10.5643 22.8244 6.77298 22.9648 5.18291 22.3385C4.12287 21.9173 3.3062 21.1019 2.87893 20.0382C2.24615 18.4453 2.39218 14.6654 2.39218 12.9051C2.39218 11.1448 2.25156 7.35959 2.87893 5.77207C3.30079 4.71372 4.11746 3.89836 5.18291 3.47178C6.77839 2.84001 10.5643 2.98581 12.3274 2.98581C14.0906 2.98581 17.8818 2.84541 19.4719 3.47178C20.532 3.89296 21.3486 4.70832 21.7759 5.77207C22.4087 7.36499 22.2626 11.1448 22.2626 12.9051C22.2626 14.6654 22.4087 18.4507 21.7759 20.0382Z" fill="white"/>
</svg>
